<?xml version="1.0" encoding="UTF-8" standalone="no"?>
<!-- Created with Inkscape (http://www.inkscape.org/) -->

<svg
   xmlns:dc="http://purl.org/dc/elements/1.1/"
   xmlns:cc="http://creativecommons.org/ns#"
   xmlns:rdf="http://www.w3.org/1999/02/22-rdf-syntax-ns#"
   xmlns:svg="http://www.w3.org/2000/svg"
   xmlns="http://www.w3.org/2000/svg"
   xmlns:sodipodi="http://sodipodi.sourceforge.net/DTD/sodipodi-0.dtd"
   xmlns:inkscape="http://www.inkscape.org/namespaces/inkscape"
   width="16px"
   height="16px"
   id="svg3215"
   version="1.1"
   inkscape:version="0.48.4 r9939"
   sodipodi:docname="New document 15">
  <defs
     id="defs3217" />
  <sodipodi:namedview
     id="base"
     pagecolor="#ffffff"
     bordercolor="#666666"
     borderopacity="1.0"
     inkscape:pageopacity="0.0"
     inkscape:pageshadow="2"
     inkscape:zoom="22.197802"
     inkscape:cx="11.60396"
     inkscape:cy="8"
     inkscape:current-layer="layer1"
     showgrid="true"
     inkscape:grid-bbox="true"
     inkscape:document-units="px"
     inkscape:window-width="1318"
     inkscape:window-height="633"
     inkscape:window-x="0"
     inkscape:window-y="31"
     inkscape:window-maximized="1" />
  <metadata
     id="metadata3220">
    <rdf:RDF>
      <cc:Work
         rdf:about="">
        <dc:format>image/svg+xml</dc:format>
        <dc:type
           rdf:resource="http://purl.org/dc/dcmitype/StillImage" />
        <dc:title></dc:title>
      </cc:Work>
    </rdf:RDF>
  </metadata>
  <g
     id="layer1"
     inkscape:label="Layer 1"
     inkscape:groupmode="layer">
    <rect
       style="fill:#cccccc;stroke:none"
       id="rect3223"
       width="16.172773"
       height="16.217821"
       x="-0.045049507"
       y="-0.037623905" />
    <rect
       style="fill:#cccccc"
       id="rect3012"
       width="2.2074263"
       height="16.39802"
       x="6.9376249"
       y="-0.12772284" />
    <rect
       style="fill:#cccccc"
       id="rect3014"
       width="16.037622"
       height="1.5767323"
       x="7.2675175e-07"
       y="6.9900994" />
    <rect
       style="fill:none;stroke:none"
       id="rect3148"
       width="3.919307"
       height="3.3787129"
       x="6.1267338"
       y="5.9539604" />
    <rect
       style="fill:#ffffff;stroke:none"
       id="rect3150"
       width="3.9643564"
       height="3.468812"
       x="6.0816841"
       y="5.9539604" />
    <path
       style="fill:#ffff00;stroke:none"
       d="m 6.972872,12.851832 0,-3.4012378 1.0811881,0 1.0811881,0 0,3.4012378 0,3.401237 -1.0811881,0 -1.0811881,0 0,-3.401237 z"
       id="path3277"
       inkscape:connector-curvature="0" />
    <path
       style="fill:#ffff00;stroke:none"
       d="m 0.03524818,7.7837625 0,-0.7658416 3.01831682,0 3.0183169,0 0,0.7658416 0,0.7658416 -3.0183169,0 -3.01831682,0 0,-0.7658416 z"
       id="path3279"
       inkscape:connector-curvature="0" />
    <path
       style="fill:#ffff00;stroke:none"
       d="m 6.972872,2.9184159 0,-3.01831689 1.0811881,0 1.0811881,0 0,3.01831689 0,3.0183169 -1.0811881,0 -1.0811881,0 0,-3.0183169 z"
       id="path3281"
       inkscape:connector-curvature="0" />
    <path
       style="fill:#ffff00;stroke:none"
       d="m 10.081288,7.7837625 0,-0.7658416 2.973268,0 2.973267,0 0,0.7658416 0,0.7658416 -2.973267,0 -2.973268,0 0,-0.7658416 z"
       id="path3283"
       inkscape:connector-curvature="0" />
    <rect
       style="fill:#cccccc"
       id="rect3012-3"
       width="2.2074263"
       height="16.39802"
       x="6.9376249"
       y="-0.12772284" />
    <rect
       style="fill:#cccccc"
       id="rect3014-6"
       width="16.037622"
       height="1.5767323"
       x="7.2675175e-07"
       y="6.9900994" />
    <rect
       style="fill:none;stroke:none"
       id="rect3148-0"
       width="3.919307"
       height="3.3787129"
       x="6.1267338"
       y="5.9539604" />
    <rect
       style="fill:#ffffff;stroke:none"
       id="rect3150-6"
       width="3.9643564"
       height="3.468812"
       x="6.0816841"
       y="5.9539604" />
    <path
       style="fill:#ffff00;stroke:none"
       d="m 6.972872,12.851832 0,-3.4012378 1.0811881,0 1.0811881,0 0,3.4012378 0,3.401237 -1.0811881,0 -1.0811881,0 0,-3.401237 z"
       id="path3277-2"
       inkscape:connector-curvature="0" />
    <path
       style="fill:#ffff00;stroke:none"
       d="m 0.03524818,7.7837625 0,-0.7658416 3.01831682,0 3.0183169,0 0,0.7658416 0,0.7658416 -3.0183169,0 -3.01831682,0 0,-0.7658416 z"
       id="path3279-6"
       inkscape:connector-curvature="0" />
    <path
       style="fill:#ffff00;stroke:none"
       d="m 6.972872,2.9184159 0,-3.01831689 1.0811881,0 1.0811881,0 0,3.01831689 0,3.0183169 -1.0811881,0 -1.0811881,0 0,-3.0183169 z"
       id="path3281-1"
       inkscape:connector-curvature="0" />
    <path
       style="fill:#ffff00;stroke:none"
       d="m 10.081288,7.7837625 0,-0.7658416 2.973268,0 2.973267,0 0,0.7658416 0,0.7658416 -2.973267,0 -2.973268,0 0,-0.7658416 z"
       id="path3283-8"
       inkscape:connector-curvature="0" />
    <rect
       style="fill:#cccccc"
       id="rect3012-7"
       width="2.2074263"
       height="16.39802"
       x="6.9376249"
       y="-0.12772284" />
    <rect
       style="fill:#cccccc"
       id="rect3014-9"
       width="16.037622"
       height="1.5767323"
       x="7.2675175e-07"
       y="6.9900994" />
    <rect
       style="fill:none;stroke:none"
       id="rect3148-2"
       width="3.919307"
       height="3.3787129"
       x="6.1267338"
       y="5.9539604" />
    <rect
       style="fill:#ffffff;stroke:none"
       id="rect3150-0"
       width="3.9643564"
       height="3.468812"
       x="6.0816841"
       y="5.9539604" />
    <path
       style="fill:#ffffff;stroke:none"
       d="m 6.972872,12.851832 0,-3.4012378 1.0811881,0 1.0811881,0 0,3.4012378 0,3.401237 -1.0811881,0 -1.0811881,0 0,-3.401237 z"
       id="path3277-23"
       inkscape:connector-curvature="0" />
    <path
       style="fill:#ffffff;stroke:none"
       d="m 0.03524818,7.7837625 0,-0.7658416 3.01831682,0 3.0183169,0 0,0.7658416 0,0.7658416 -3.0183169,0 -3.01831682,0 0,-0.7658416 z"
       id="path3279-7"
       inkscape:connector-curvature="0" />
    <path
       style="fill:#ffffff;stroke:none"
       d="m 6.972872,2.9184159 0,-3.01831689 1.0811881,0 1.0811881,0 0,3.01831689 0,3.0183169 -1.0811881,0 -1.0811881,0 0,-3.0183169 z"
       id="path3281-5"
       inkscape:connector-curvature="0" />
    <path
       style="fill:#ffffff;stroke:none"
       d="m 10.081288,7.7837625 0,-0.7658416 2.973268,0 2.973267,0 0,0.7658416 0,0.7658416 -2.973267,0 -2.973268,0 0,-0.7658416 z"
       id="path3283-9"
       inkscape:connector-curvature="0" />
    <rect
       style="fill:none"
       id="rect3012-2"
       width="2.2074263"
       height="16.39802"
       x="6.9376249"
       y="-0.12772284" />
    <rect
       style="fill:none"
       id="rect3014-2"
       width="16.037622"
       height="1.5767323"
       x="7.2675175e-07"
       y="6.9900994" />
    <rect
       style="fill:none;stroke:none"
       id="rect3148-8"
       width="3.919307"
       height="3.3787129"
       x="6.1267338"
       y="5.9539604" />
    <rect
       style="fill:none;stroke:none"
       id="rect3150-9"
       width="3.9643564"
       height="3.468812"
       x="6.0816841"
       y="5.9539604" />
    <path
       style="fill:none;stroke:none"
       d="m 6.972872,12.851832 0,-3.4012378 1.0811881,0 1.0811881,0 0,3.4012378 0,3.401237 -1.0811881,0 -1.0811881,0 0,-3.401237 z"
       id="path3277-7"
       inkscape:connector-curvature="0" />
    <path
       style="fill:none;stroke:none"
       d="m 0.03524818,7.7837625 0,-0.7658416 3.01831682,0 3.0183169,0 0,0.7658416 0,0.7658416 -3.0183169,0 -3.01831682,0 0,-0.7658416 z"
       id="path3279-3"
       inkscape:connector-curvature="0" />
    <path
       style="fill:none;stroke:none"
       d="m 6.972872,2.9184159 0,-3.01831689 1.0811881,0 1.0811881,0 0,3.01831689 0,3.0183169 -1.0811881,0 -1.0811881,0 0,-3.0183169 z"
       id="path3281-6"
       inkscape:connector-curvature="0" />
    <path
       style="fill:none;stroke:none"
       d="m 10.081288,7.7837625 0,-0.7658416 2.973268,0 2.973267,0 0,0.7658416 0,0.7658416 -2.973267,0 -2.973268,0 0,-0.7658416 z"
       id="path3283-1"
       inkscape:connector-curvature="0" />
    <path
       style="fill:none;stroke:none"
       d="m 0.07128706,7.7972772 0,-0.7433168 2.99579214,0 2.9957921,0 0,0.7433168 0,0.7433169 -2.9957921,0 -2.99579214,0 0,-0.7433169 z"
       id="path3387"
       inkscape:connector-curvature="0" />
    <path
       style="fill:none;stroke:none"
       d="m 7.0089109,2.9319306 0,-2.99579206 1.0586634,0 1.0586633,0 0,2.99579206 0,2.9957922 -1.0586633,0 -1.0586634,0 0,-2.9957922 z"
       id="path3389"
       inkscape:connector-curvature="0" />
    <path
       style="fill:none;stroke:none"
       d="m 10.117327,7.7972772 0,-0.7433168 2.950742,0 2.950743,0 0,0.7433168 0,0.7433169 -2.950743,0 -2.950742,0 0,-0.7433169 z"
       id="path3391"
       inkscape:connector-curvature="0" />
    <path
       style="fill:none;stroke:none"
       d="m 7.0089109,12.865347 0,-3.3787133 1.0586634,0 1.0586633,0 0,3.3787133 0,3.378712 -1.0586633,0 -1.0586634,0 0,-3.378712 z"
       id="path3393"
       inkscape:connector-curvature="0" />
    <path
       style="fill:none;stroke:none"
       d="m 7.0089109,12.865347 0,-3.3787133 1.0586634,0 1.0586633,0 0,3.3787133 0,3.378712 -1.0586633,0 -1.0586634,0 0,-3.378712 z"
       id="path3395"
       inkscape:connector-curvature="0" />
  </g>
</svg>
